<svg xmlns="http://www.w3.org/2000/svg" viewBox="0 0 64 64"><rect width="64" height="64" rx="14" fill="#0d0e11"/><g transform="translate(19.5 13) scale(1.45)"><path d="M11.1037 0C11.1037 0 17.3445 7.00188 17.2602 13.7091C17.2051 18.1195 11.4182 24.7149 11.1686 24.8132C11.2712 24.8132 11.7221 24.8132 11.9434 24.8132C12.1318 24.8132 12.5238 24.8132 12.8533 24.8132C13.1342 24.8132 13.3418 25.0701 13.257 25.3379C13.1064 25.813 12.8348 26.4489 12.4459 26.5171C12.1575 26.5171 6.05425 26.5171 5.37193 26.5171C4.70171 26.5356 2.34577 26.5171 2.09431 26.5171C1.80339 26.5171 1.74742 25.3179 2.05865 25.3179C2.36987 25.3179 3.86766 25.284 4.17889 25.2535C4.49012 25.223 5.90362 24.9588 5.79987 24.8301C5.67344 24.6709 5.21956 24.6709 4.49012 24.2441C0.800765 22.0761 0 20.3993 0 20.3993C0 20.3993 4.66843 18.0823 7.23606 15.0234C10.8833 10.6739 10.6369 0.0643618 11.1037 0Z" fill="#ffffff"/></g></svg>